# xmcd CD database file generated by freedbAccess_ocx
#
# Track frame offsets:
#       175
#       12225
#       31778
#       41135
#       57441
#       71618
#       88592
#       101236
#       115279
#       125016
#       143157
#       153612
#       163185
#       179011
#       192298
#       201792
#       217032
#       231722
#       243461
#       264214
#
# Disc length: 3669 seconds
#
# Revision: 0
# Processed by: cddbd v1.4PL0 Copyright (c) Steve Scherf et al.
# Submitted via: CDnGo 2.00
#
DISCID=320e5314
DTITLE=KTO - 40. Narozeniny
DYEAR=2003
DGENRE=Country
TTITLE0=Marta
TTITLE1=Frajer Joe
TTITLE2=Bessie
TTITLE3=Kamos Campbell
TTITLE4=Rikatado
TTITLE5=Help Me Make It
TTITLE6=Dablovo stado
TTITLE7=Mavam Rekam
TTITLE8=Zaprazi
TTITLE9=Den jde spat
TTITLE10=Do sedla jo
TTITLE11=Uz neni Ohio
TTITLE12=Nezapomen hochu
TTITLE13=Vsichni svorne
TTITLE14=Tuhle rundu platim ja
TTITLE15=Pulmesic
TTITLE16=Kabaleri, zapad hori
TTITLE17=Mary a Johny
TTITLE18=Sedlo z bodlaku
TTITLE19=Kvete mak a slunce pali
EXTD=
EXTT0=
EXTT1=
EXTT2=
EXTT3=
EXTT4=
EXTT5=
EXTT6=
EXTT7=
EXTT8=
EXTT9=
EXTT10=
EXTT11=
EXTT12=
EXTT13=
EXTT14=
EXTT15=
EXTT16=
EXTT17=
EXTT18=
EXTT19=
PLAYORDER=
